<svg xmlns="http://www.w3.org/2000/svg" version="1.1" xmlns:xlink="http://www.w3.org/1999/xlink" xmlns:svgjs="http://svgjs.dev/svgjs" viewBox="0 0 9.145312532336643 10.315497401496318"><g transform="matrix(1,0,0,1,0.8091064614808214,7.577765940015496)"><rect width="10.315497401496318" height="10.315497401496318" x="-1.3941988960606588" y="-7.577765940015496" fill="#ffffff"></rect><g><path d=" M 0.8325 0.7545000000000001 L 0.2235 0.7545000000000001 L 0.09 1.05 L 0.0075 1.05 L 0.4905 0 L 0.5670000000000001 0 L 1.05 1.05 L 0.9675 1.05 L 0.8325 0.7545000000000001 M 0.804 0.6900000000000001 L 0.528 0.08400000000000007 L 0.2535 0.6900000000000001 L 0.804 0.6900000000000001 M 1.3192536621093751 0.9420000000000001 Q 1.209003662109375 0.8265 1.209003662109375 0.6045 L 1.209003662109375 0 L 1.285503662109375 0 L 1.285503662109375 0.6015 Q 1.285503662109375 0.795 1.374003662109375 0.891 Q 1.462503662109375 0.9870000000000001 1.630503662109375 0.9870000000000001 Q 1.797003662109375 0.9870000000000001 1.885503662109375 0.891 Q 1.974003662109375 0.795 1.974003662109375 0.6015 L 1.974003662109375 0 L 2.0505036621093753 0 L 2.0505036621093753 0.6045 Q 2.0505036621093753 0.8265 1.939503662109375 0.9420000000000001 Q 1.8285036621093749 1.0575 1.6290036621093749 1.0575 Q 1.429503662109375 1.0575 1.3192536621093751 0.9420000000000001 M 2.587582763671875 0.06900000000000006 L 2.209582763671875 0.06900000000000006 L 2.209582763671875 0 L 3.042082763671875 0 L 3.042082763671875 0.06900000000000006 L 2.664082763671875 0.06900000000000006 L 2.664082763671875 1.05 L 2.587582763671875 1.05 L 2.587582763671875 0.06900000000000006 M 4.086065185546875 0 L 4.086065185546875 1.05 L 4.009565185546875 1.05 L 4.009565185546875 0.5505 L 3.307565185546875 0.5505 L 3.307565185546875 1.05 L 3.231065185546875 1.05 L 3.231065185546875 0 L 3.307565185546875 0 L 3.307565185546875 0.483 L 4.009565185546875 0.483 L 4.009565185546875 0 L 4.086065185546875 0 M 4.45210400390625 0 L 4.86760400390625 0 Q 5.0311040039062505 0 5.15785400390625 0.0675 Q 5.28460400390625 0.135 5.35510400390625 0.25425 Q 5.42560400390625 0.37350000000000005 5.42560400390625 0.525 Q 5.42560400390625 0.6765000000000001 5.35510400390625 0.79575 Q 5.28460400390625 0.915 5.15785400390625 0.9825 Q 5.0311040039062505 1.05 4.86760400390625 1.05 L 4.45210400390625 1.05 L 4.45210400390625 0 M 4.86160400390625 0.9810000000000001 Q 5.0071040039062495 0.9810000000000001 5.11810400390625 0.92325 Q 5.22910400390625 0.8655 5.28910400390625 0.762 Q 5.34910400390625 0.6585000000000001 5.34910400390625 0.525 Q 5.34910400390625 0.39150000000000007 5.28910400390625 0.28800000000000003 Q 5.22910400390625 0.1845 5.11810400390625 0.12675000000000003 Q 5.0071040039062495 0.06900000000000006 4.86160400390625 0.06900000000000006 L 4.52860400390625 0.06900000000000006 L 4.52860400390625 0.9810000000000001 L 4.86160400390625 0.9810000000000001 M 6.415587158203125 0.9810000000000001 L 6.415587158203125 1.05 L 5.691087158203125 1.05 L 5.691087158203125 0 L 6.393087158203125 0 L 6.393087158203125 0.06900000000000006 L 5.767587158203125 0.06900000000000006 L 5.767587158203125 0.483 L 6.327087158203125 0.483 L 6.327087158203125 0.5505 L 5.767587158203125 0.5505 L 5.767587158203125 0.9810000000000001 L 6.415587158203125 0.9810000000000001 M 7.51808203125 0 L 7.05008203125 1.05 L 6.97358203125 1.05 L 6.50558203125 0 L 6.58958203125 0 L 7.01408203125 0.9510000000000001 L 7.43858203125 0 L 7.51808203125 0" fill="#0d0d0d" fill-rule="nonzero"></path></g><g><path d=" M 1.8630391845703127 1.6980000000000004 Q 1.8911641845703127 1.7313750000000003 1.8911641845703127 1.7838750000000003 Q 1.8911641845703127 1.8513750000000002 1.8412891845703128 1.8877500000000003 Q 1.7914141845703129 1.9241250000000003 1.6939141845703127 1.9241250000000003 L 1.4524141845703127 1.9241250000000003 L 1.4524141845703127 1.3991250000000002 L 1.6789141845703128 1.3991250000000002 Q 1.7666641845703128 1.3991250000000002 1.8150391845703129 1.4343750000000002 Q 1.8634141845703127 1.4696250000000002 1.8634141845703127 1.5341250000000004 Q 1.8634141845703127 1.5776250000000003 1.8420391845703128 1.6080000000000003 Q 1.8206641845703126 1.6383750000000004 1.7831641845703128 1.6533750000000003 Q 1.8349141845703127 1.6646250000000002 1.8630391845703127 1.6980000000000004 M 1.5079141845703128 1.4448750000000004 L 1.5079141845703128 1.6353750000000002 L 1.675164184570313 1.6353750000000002 Q 1.7389141845703127 1.6353750000000002 1.7734141845703129 1.6110000000000002 Q 1.8079141845703128 1.5866250000000002 1.8079141845703128 1.5401250000000002 Q 1.8079141845703128 1.4936250000000002 1.7734141845703129 1.4692500000000002 Q 1.7389141845703127 1.4448750000000004 1.675164184570313 1.4448750000000004 L 1.5079141845703128 1.4448750000000004 M 1.7996641845703127 1.8543750000000003 Q 1.8356641845703128 1.8303750000000003 1.8356641845703128 1.7793750000000004 Q 1.8356641845703128 1.6811250000000002 1.6931641845703127 1.6811250000000002 L 1.5079141845703128 1.6811250000000002 L 1.5079141845703128 1.8783750000000003 L 1.6931641845703127 1.8783750000000003 Q 1.7636641845703127 1.8783750000000003 1.7996641845703127 1.8543750000000003 M 2.1877994384765627 1.7426250000000003 L 2.1877994384765627 1.9241250000000003 L 2.133049438476563 1.9241250000000003 L 2.133049438476563 1.7426250000000003 L 1.9230494384765628 1.3991250000000002 L 1.9822994384765629 1.3991250000000002 L 2.1622994384765626 1.6938750000000002 L 2.3422994384765627 1.3991250000000002 L 2.3977994384765626 1.3991250000000002 L 2.1877994384765627 1.7426250000000003 M 3.1215747070312503 1.3991250000000002 L 3.1215747070312503 1.9241250000000003 L 3.0758247070312503 1.9241250000000003 L 2.7383247070312504 1.4981250000000004 L 2.7383247070312504 1.9241250000000003 L 2.6828247070312505 1.9241250000000003 L 2.6828247070312505 1.3991250000000002 L 2.7285747070312505 1.3991250000000002 L 3.0668247070312504 1.8251250000000003 L 3.0668247070312504 1.3991250000000002 L 3.1215747070312503 1.3991250000000002 M 3.34619091796875 1.8701250000000003 Q 3.28919091796875 1.8116250000000003 3.28919091796875 1.6998750000000002 L 3.28919091796875 1.3991250000000002 L 3.34469091796875 1.3991250000000002 L 3.34469091796875 1.6976250000000004 Q 3.34469091796875 1.7891250000000003 3.38594091796875 1.8341250000000002 Q 3.42719091796875 1.8791250000000004 3.50519091796875 1.8791250000000004 Q 3.58394091796875 1.8791250000000004 3.62519091796875 1.8341250000000002 Q 3.66644091796875 1.7891250000000003 3.66644091796875 1.6976250000000004 L 3.66644091796875 1.3991250000000002 L 3.72044091796875 1.3991250000000002 L 3.72044091796875 1.6998750000000002 Q 3.72044091796875 1.8116250000000003 3.66381591796875 1.8701250000000003 Q 3.60719091796875 1.9286250000000003 3.50519091796875 1.9286250000000003 Q 3.40319091796875 1.9286250000000003 3.34619091796875 1.8701250000000003 M 4.43406005859375 1.3991250000000002 L 4.43406005859375 1.9241250000000003 L 4.38081005859375 1.9241250000000003 L 4.38081005859375 1.5041250000000004 L 4.17456005859375 1.8573750000000002 L 4.14831005859375 1.8573750000000002 L 3.94206005859375 1.5063750000000002 L 3.94206005859375 1.9241250000000003 L 3.88881005859375 1.9241250000000003 L 3.88881005859375 1.3991250000000002 L 3.93456005859375 1.3991250000000002 L 4.16256005859375 1.7883750000000003 L 4.38831005859375 1.3991250000000002 L 4.43406005859375 1.3991250000000002 M 4.606197875976562 1.3991250000000002 L 4.819947875976562 1.3991250000000002 Q 4.903197875976563 1.3991250000000002 4.966947875976563 1.4325000000000003 Q 5.030697875976562 1.4658750000000003 5.065947875976563 1.5255000000000003 Q 5.101197875976562 1.5851250000000003 5.101197875976562 1.6616250000000004 Q 5.101197875976562 1.7381250000000004 5.065947875976563 1.7977500000000002 Q 5.030697875976562 1.8573750000000002 4.966947875976563 1.8907500000000004 Q 4.903197875976563 1.9241250000000003 4.819947875976562 1.9241250000000003 L 4.606197875976562 1.9241250000000003 L 4.606197875976562 1.3991250000000002 M 4.816947875976562 1.8761250000000003 Q 4.885947875976562 1.8761250000000003 4.937697875976562 1.8487500000000003 Q 4.989447875976563 1.8213750000000002 5.017947875976563 1.7730000000000004 Q 5.046447875976563 1.7246250000000003 5.046447875976563 1.6616250000000004 Q 5.046447875976563 1.5986250000000002 5.017947875976563 1.5502500000000003 Q 4.989447875976563 1.5018750000000003 4.937697875976562 1.4745000000000004 Q 4.885947875976562 1.4471250000000002 4.816947875976562 1.4471250000000002 L 4.661697875976563 1.4471250000000002 L 4.661697875976563 1.8761250000000003 L 4.816947875976562 1.8761250000000003 M 5.598064453125 1.8761250000000003 L 5.598064453125 1.9241250000000003 L 5.226814453125 1.9241250000000003 L 5.226814453125 1.3991250000000002 L 5.586814453125 1.3991250000000002 L 5.586814453125 1.4471250000000002 L 5.282314453125 1.4471250000000002 L 5.282314453125 1.6338750000000002 L 5.553814453125 1.6338750000000002 L 5.553814453125 1.6811250000000002 L 5.282314453125 1.6811250000000002 L 5.282314453125 1.8761250000000003 L 5.598064453125 1.8761250000000003 M 6.158686889648438 1.3991250000000002 L 5.926186889648438 1.9241250000000003 L 5.871436889648438 1.9241250000000003 L 5.638936889648438 1.3991250000000002 L 5.698936889648437 1.3991250000000002 L 5.899936889648438 1.8551250000000004 L 6.102436889648438 1.3991250000000002 L 6.158686889648438 1.3991250000000002" fill="#594a42" fill-rule="nonzero"></path></g><g clip-path="url(#SvgjsClipPath1002)"><g clip-path="url(#SvgjsClipPath10001e72d165-b738-42dd-bb1e-783d28d36ab4)"><path d=" M 3.026758197737391 -4.589275074705011 C 3.3445437658994566 -4.513857588015837 3.5080539471247234 -4.505890314512058 3.762282401654376 -4.505890314512058 C 4.016510856184028 -4.505890314512058 4.181288558193987 -4.513857588015837 4.498983589157147 -4.589275074705011 C 4.710931171797429 -4.639613757297064 5.1814529945148795 -4.64739995640303 5.5893230755889824 -4.558764038673496 L 6.38396807039196 -5.017606562731999 L 3.8031146783612395 -6.507577245137442 C 3.7786599345000536 -6.521696198088661 3.748530447576989 -6.521696198088661 3.7240757037158025 -6.507577245137442 L 1.1431317744861766 -5.017516025533093 L 1.9380483808858722 -4.558673501474589 C 2.3456468503632557 -4.64739995640303 2.8148106150971075 -4.639613757297064 3.026758197737391 -4.589275074705011 Z" fill="#c49a6c" transform="matrix(1,0,0,1,0,0)" fill-rule="nonzero"></path></g><g clip-path="url(#SvgjsClipPath10001e72d165-b738-42dd-bb1e-783d28d36ab4)"><path d=" M 4.127599999242392 -4.279456780046724 C 3.9687977523602647 -4.088785439149485 4.111755989433741 -3.636008907417722 4.250730589755328 -3.397714999895627 C 4.389705190076915 -3.159421092373531 4.636056908301695 -3.028413765555723 5.0728988930259025 -3.076036332180579 C 5.509740877750108 -3.1236588988054357 5.588960926793357 -3.2428963897653897 5.700502755846253 -3.4291314079162065 C 5.812044584899148 -3.6153664260670237 5.8752395497359355 -4.120201847170065 5.803715162599744 -4.291045541506765 C 5.732190775463552 -4.461889235843465 5.203996757042617 -4.50163506616345 4.957735576016743 -4.5055281657164326 C 4.707581295437886 -4.509873951263947 4.286492783323423 -4.470128120943963 4.127599999242392 -4.279456780046724 Z" fill="#e6e6e6" transform="matrix(1,0,0,1,0,0)" fill-rule="nonzero"></path></g><g clip-path="url(#SvgjsClipPath10001e72d165-b738-42dd-bb1e-783d28d36ab4)"><path d=" M 2.5667386900931026 -4.505890314512058 C 2.3204775090672287 -4.501997214959076 1.7922834906462919 -4.462160847440185 1.720759103510101 -4.291407690302391 C 1.6492347163739098 -4.120654533164597 1.712791830006323 -3.616181260857183 1.824062047462499 -3.429493556711833 C 1.9353322649186753 -3.2428058525664833 2.014642851160832 -3.1236588988054357 2.4515753730839442 -3.0763984809762057 C 2.8885078950070566 -3.029138063146977 3.134678538834024 -3.159783241169158 3.2737436763545174 -3.3980771486912533 C 3.412808813875011 -3.636371056213348 3.555314364953954 -4.088785439149485 3.396874266867454 -4.279456780046724 C 3.238434168780955 -4.470128120943963 2.8169835078708654 -4.509873951263947 2.5667386900931026 -4.505890314512058 Z" fill="#e6e6e6" transform="matrix(1,0,0,1,0,0)" fill-rule="nonzero"></path></g><g clip-path="url(#SvgjsClipPath10001e72d165-b738-42dd-bb1e-783d28d36ab4)"><path d=" M 6.113533457258031 -4.346997530431026 L 6.113533457258031 -4.072941429340835 C 6.113533457258031 -4.072941429340835 6.010321050504539 -4.084892339596502 5.95455013597809 -3.8262275623204287 C 5.898779221451644 -3.567562785044354 5.771936605783537 -3.183413450083773 5.462208848324156 -3.060101785173023 C 5.152481090864777 -2.936790120262273 4.606270169861434 -2.917143548099547 4.3441649790269095 -3.1316261723092134 C 4.192786782455121 -3.2554810604134032 4.105508922709187 -3.4083078521676957 4.050190694177272 -3.5480972872794414 L 3.892112744886399 -3.4570168651794315 C 3.867690264683964 -3.443189285548468 3.841177511420876 -3.4334343048207576 3.8136169934344015 -3.4281354987282344 L 3.8136169934344015 -2.5965513267713787 C 4.124883883275194 -2.8339398623044088 4.420216226108428 -2.513890864169679 4.691103525236889 -2.306832290270351 C 4.7939537831947545 -2.2295135224041394 5.182992126896291 -2.0301506104118703 5.1786463413487756 -2.296873198390627 C 5.176473448575019 -2.3741919662568396 5.182992126896291 -2.4439056094149 5.010247151382552 -2.616016824536291 C 5.646723659695748 -2.578987110183503 5.598738944275267 -0.9121972783135277 3.8136169934344015 -1.9007729531743784 L 3.8136169934344015 -0.517545628279783 L 6.158530445114597 -2.0043475087234963 C 6.179348936751932 -2.017779720856515 6.192733820326554 -2.040132476426134 6.194745324677225 -2.064826357593084 L 6.425343570292263 -4.919464239117276 L 5.736446023812162 -4.521734324320708 C 5.882120376852836 -4.479091303635713 6.0137614640629895 -4.42187179392676 6.113533457258031 -4.346997530431026 Z" fill="#8b5e3c" transform="matrix(1,0,0,1,0,0)" fill-rule="nonzero"></path></g><g clip-path="url(#SvgjsClipPath10001e72d165-b738-42dd-bb1e-783d28d36ab4)"><path d=" M 4.014519037808084 -3.649589487253708 C 3.9945103168497313 -3.7129655264883077 3.98002436502468 -3.7710904081863266 3.9678018431722926 -3.818712974811183 C 3.924162913299325 -3.989556669147883 3.9211751857354087 -4.11268725966082 3.762282401654376 -4.11268725966082 C 3.603389617573343 -4.11268725966082 3.6005829644072396 -3.9891945203522567 3.5568534973353656 -3.818712974811183 C 3.5447215126818854 -3.771362019783046 3.5303260980557405 -3.7135992868806538 3.5105889886941077 -3.6506759336405867 L 3.687770286954268 -3.548459436075068 C 3.7347207296947706 -3.5214813592761907 3.792469652382272 -3.5214813592761907 3.8394200951227746 -3.548459436075068 Z" fill="#c49a6c" transform="matrix(1,0,0,1,0,0)" fill-rule="nonzero"></path></g><g clip-path="url(#SvgjsClipPath10001e72d165-b738-42dd-bb1e-783d28d36ab4)"><path d=" M 3.4749173323249183 -3.5494553452630404 C 3.41968964099191 -3.409122686957855 3.3324117812459755 -3.2557526720101233 3.180671435878562 -3.1316261723092134 C 2.918566245044038 -2.9171435480995456 2.372808010035227 -2.936971194660086 2.0629897153769408 -3.060101785173023 C 1.7531714207186542 -3.18323237568596 1.6268720282439868 -3.5685586942323266 1.5711011137175386 -3.8262275623204287 C 1.5153301991910908 -4.0838964304085295 1.4135663876201048 -4.072488743346302 1.4135663876201048 -4.072488743346302 L 1.4135663876201048 -4.346997530431026 C 1.5138816040085858 -4.421781256727854 1.645432154019834 -4.479000766436807 1.791197044259413 -4.521553249922895 L 1.1017562745858736 -4.919464239117276 L 1.3316302226096577 -2.064826357593086 C 1.3336417269603282 -2.0401324764261357 1.3470266105349502 -2.0177797208565167 1.3678451021722862 -2.004347508723497 L 3.712758553852481 -0.5175456282797839 L 3.712758553852481 -1.9068389455011188 C 1.890244739863202 -0.9795569543000164 1.8929608558303994 -2.6534992248836113 2.5304332733315675 -2.6659933583327176 C 2.3534330494692206 -2.5013967307205727 2.3577788350167364 -2.4315925503636056 2.3534330494692206 -2.354364319696301 C 2.3402146184288615 -2.0875511945186354 2.7359527148494838 -2.2720660058902267 2.8408853283821993 -2.3443146906176713 C 3.0966529152932636 -2.5253890884308134 3.406833358747176 -2.792835974000824 3.7127585538524808 -2.5987242195451365 L 3.7127585538524808 -3.427863887131515 C 3.685198035866007 -3.433162693224038 3.658685282602918 -3.4429176739517486 3.634262802400484 -3.4567452535827115 Z" fill="#594a42" transform="matrix(1,0,0,1,0,0)" fill-rule="nonzero"></path></g><g clip-path="url(#SvgjsClipPath10001e72d165-b738-42dd-bb1e-783d28d36ab4)"><path d=" M 6.51280250443601 -5.232541872936199 L 3.928418161647934 -6.724594910916493 C 3.8263574684076023 -6.783347667740735 3.700742376470534 -6.783347667740735 3.5986816832302013 -6.724594910916493 L 1.0143878776410322 -5.232541872936199 C 0.9043907523000115 -5.168689088351249 0.8407237608631882 -5.047443767455806 0.8506060848190452 -4.920641222703061 L 1.0821097024231476 -2.0446365622369207 C 1.0907112464426123 -1.9415137311971726 1.1469685295063985 -1.84832086288377 1.2342121965861872 -1.7926715376799338 L 3.587002384571254 -0.3009806484952646 C 3.6948864780047947 -0.23300645050157787 3.8322133668733405 -0.23300645050157787 3.9400974603068817 -0.3009806484952646 L 6.29288764829195 -1.792671537679933 C 6.380131315371736 -1.848320862883769 6.4363885984355225 -1.9415137311971709 6.444990142454987 -2.0446365622369207 L 6.676493760059092 -4.920641222703062 C 6.6863717287465025 -5.047419785835855 6.622748347169534 -5.168649072081796 6.51280250443601 -5.232541872936199 Z M 3.7242567781136153 -6.507577245137442 C 3.7487115219748017 -6.521696198088661 3.7788410088978663 -6.521696198088661 3.8032957527590523 -6.507577245137442 L 6.383968070391958 -5.017606562731999 L 5.5893230755889824 -4.558764038673496 C 5.181905680509413 -4.64739995640303 4.711112246195242 -4.639613757297064 4.498983589157147 -4.589275074705011 C 4.181288558193987 -4.513857588015837 4.016420318985121 -4.505890314512058 3.762282401654376 -4.505890314512058 C 3.5081444843236302 -4.505890314512058 3.3445437658994566 -4.513857588015837 3.026758197737391 -4.589275074705011 C 2.8148106150971075 -4.639613757297064 2.3456468503632557 -4.64739995640303 1.9380483808858722 -4.558673501474589 L 1.1431317744861766 -5.017516025533093 Z M 5.803896236997556 -4.291407690302391 C 5.875420624133747 -4.120563995965691 5.811863510501334 -3.616181260857183 5.700683830244065 -3.429493556711833 C 5.589504149986796 -3.2428058525664833 5.510012489346828 -3.1236588988054357 5.073079967423713 -3.0763984809762057 C 4.636147445500599 -3.029138063146977 4.389976801673632 -3.159783241169158 4.25091166415314 -3.3980771486912533 C 4.111846526632648 -3.636371056213348 3.968978826758077 -4.089147587945112 4.127781073640204 -4.27981892884235 C 4.286583320522328 -4.47049026973959 4.707762369835699 -4.510236100059574 4.957916650414555 -4.506161926108778 C 5.203996757042617 -4.501997214959076 5.73228131266246 -4.462160847440185 5.803715162599744 -4.291407690302391 Z M 3.273743676354517 -3.397714999895627 C 3.1346785388340233 -3.159421092373531 2.88841735780815 -3.028413765555723 2.4515753730839442 -3.076036332180579 C 2.014733388359738 -3.1236588988054357 1.9355133393164878 -3.2428963897653897 1.8240620474624984 -3.4291314079162065 C 1.7126107556085093 -3.6153664260670237 1.6492347163739094 -4.120201847170065 1.7207591035101009 -4.291045541506765 C 1.7922834906462919 -4.461889235843465 2.3204775090672287 -4.50163506616345 2.5667386900931017 -4.5055281657164326 C 2.816983507870865 -4.509511802468321 3.237981482786421 -4.469765972148337 3.3968742668674534 -4.279185168450004 C 3.555767050948486 -4.088604364751672 3.412718276676104 -3.636099444616629 3.273743676354517 -3.397714999895627 Z M 3.7134828514437337 -2.5987242195451365 C 3.4075576563384296 -2.792835974000825 3.0973772128845165 -2.5254796256297203 2.8416096259734522 -2.3443146906176713 C 2.7366770124407367 -2.271884931492414 2.3409389160201135 -2.0875511945186354 2.3541573470604726 -2.354364319696301 C 2.3585031326079884 -2.4315925503636056 2.3541573470604726 -2.5013967307205727 2.5311575709228196 -2.6659933583327176 C 1.8937756906205578 -2.6534992248836113 1.8909690374544545 -0.9795569543000164 3.7134828514437332 -1.9068389455011188 L 3.7134828514437332 -0.517545628279783 L 1.3685693997635382 -2.0043475087234963 C 1.3477509081262022 -2.017779720856515 1.3343660245515803 -2.040132476426134 1.3323545202009095 -2.064826357593084 L 1.1017562745858736 -4.919464239117276 L 1.7909254326626936 -4.521553249922896 C 1.6451605424231142 -4.479000766436807 1.5136099924118662 -4.421962331125667 1.4132947760233852 -4.346997530431026 L 1.4132947760233852 -4.072941429340835 C 1.4132947760233852 -4.072941429340835 1.5152396619921844 -4.084892339596502 1.570829502120819 -3.8266802483149616 C 1.626419342249454 -3.5684681570334202 1.7536241067131866 -3.183413450083773 2.0629897153769408 -3.060101785173023 C 2.3723553240406945 -2.936790120262273 2.918566245044038 -2.917143548099547 3.180671435878562 -3.1316261723092134 C 3.3324117812459755 -3.255752672010123 3.41968964099191 -3.4091226869578546 3.4749173323249183 -3.54945534526304 L 3.634987099991737 -3.457016865179431 C 3.6594095801941715 -3.443189285548468 3.6859223334572597 -3.4334343048207576 3.713482851443734 -3.4281354987282344 Z M 3.687770286954268 -3.5484594360750683 L 3.5105889886941077 -3.6506759336405876 C 3.5303260980557405 -3.713599286880654 3.544721512681885 -3.7713620197830466 3.5568534973353656 -3.8187129748111834 C 3.6005829644072396 -3.9895566691478836 3.60348015477225 -4.11268725966082 3.762282401654376 -4.11268725966082 C 3.9210846485365023 -4.11268725966082 3.924162913299325 -3.9895566691478836 3.9678018431722926 -3.8187129748111834 C 3.98002436502468 -3.771090408186327 3.994510316849731 -3.7129655264883086 4.014519037808084 -3.6495894872537087 L 3.839420095122775 -3.5484594360750683 C 3.792469652382272 -3.521481359276191 3.7347207296947706 -3.521481359276191 3.6877702869542675 -3.548459436075068 Z M 6.195650696666291 -2.064826357593086 C 6.19363919231562 -2.0401324764261357 6.180254308740997 -2.0177797208565167 6.159435817103663 -2.004347508723497 L 3.8145223654234672 -0.5175456282797839 L 3.8145223654234672 -1.900501341577658 C 5.600006465059959 -0.9122878155124337 5.647629031684815 -2.579530333376942 5.011152523371619 -2.6157452129395704 C 5.183897498885356 -2.4437245350170853 5.177378820564083 -2.373920354660119 5.179551713337842 -2.2966015867939067 C 5.183897498885356 -2.029878998815148 4.79485915518382 -2.229241910807418 4.692008897225955 -2.3065606786736303 C 4.420940523699681 -2.5135287153740515 4.12578925526426 -2.8335777135087814 3.814522365423467 -2.596279715174658 L 3.814522365423467 -3.427863887131515 C 3.8420828834099408 -3.433162693224038 3.868595636673029 -3.4429176739517486 3.8930181168754636 -3.4567452535827115 L 4.0510960661663376 -3.5480972872794414 C 4.106414294698252 -3.4080362405709757 4.193692154444188 -3.255209448816683 4.345070351015974 -3.1316261723092134 C 4.60762822784503 -2.9171435480995456 5.153295925654934 -2.936971194660086 5.463114220313221 -3.060101785173023 C 5.77293251497151 -3.18323237568596 5.8990508330483635 -3.5685586942323266 5.95455013597809 -3.8262275623204287 C 6.010049438907819 -4.0838964304085295 6.113442920059123 -4.072488743346302 6.113442920059123 -4.072488743346302 L 6.113442920059123 -4.346997530431026 C 6.013852001261897 -4.42187179392676 5.882120376852836 -4.4790913036357125 5.736083875016536 -4.521734324320708 L 6.425343570292263 -4.919464239117276 Z" fill="#0d0d0d" transform="matrix(1,0,0,1,0,0)" fill-rule="nonzero"></path></g></g></g><defs><clipPath id="SvgjsClipPath1002"><path d=" M 0.8496018079395351 -6.7686594785346745 h 5.82789599349593 v 6.5186594785346745 h -5.82789599349593 Z"></path></clipPath><clipPath id="SvgjsClipPath10001e72d165-b738-42dd-bb1e-783d28d36ab4"><path d=" M 0.8496018079395351 -6.7686594785346745 L 6.6774978014354645 -6.7686594785346745 L 6.6774978014354645 -0.25 L 0.8496018079395351 -0.25 Z"></path></clipPath></defs></svg>